0.16m3min_grf.mot
version=1
nRows=15
nColumns 19
inDegrees=yes
endheader
time	1_ground_force_vx	1_ground_force_vy	1_ground_force_vz	1_ground_force_px	1_ground_force_py	1_ground_force_pz	1_ground_torque_x	1_ground_torque_y	1_ground_torque_z	2_ground_force_vx	2_ground_force_vy	2_ground_force_vz	2_ground_force_px	2_ground_force_py	2_ground_force_pz	2_ground_torque_x	2_ground_torque_y	2_ground_torque_z
            1.253500	            0.230371	           -0.722788	            0.409042	           -0.233013	            0.005581	           -0.255695	           -0.110968	           -0.009145	            0.010036	            0.418058	            0.388230	           -5.160957	           -0.232311	            0.006130	           -0.833667	           -0.622903	            0.838648	            0.116367
            1.254000	            0.093103	           -0.903473	            0.500323	           -0.233013	            0.005581	           -0.255695	           -0.077323	           -0.027524	           -0.033581	            0.278091	            0.204243	           -5.349266	           -0.232311	            0.006130	           -0.833667	           -0.623092	            0.895230	            0.154269
            1.254500	            0.138700	           -0.182205	            0.457445	           -0.233013	            0.005581	           -0.255695	           -0.094317	           -0.037235	            0.081138	            0.135547	            0.756181	           -5.347235	           -0.232311	            0.006130	           -0.833667	           -0.604410	            0.932840	            0.229797
            1.255000	           -0.548714	           -1.444198	            0.453741	           -0.233013	            0.005581	           -0.255695	           -0.018536	           -0.046699	            0.032835	            0.368508	            1.124989	           -5.252165	           -0.232311	            0.006130	           -0.833667	           -0.529224	            0.905224	            0.097713
            1.255500	            0.230581	           -0.002315	            0.549702	           -0.233013	            0.005581	           -0.255695	            0.107915	            0.018713	           -0.009212	            0.229932	            0.572204	           -5.301004	           -0.232311	            0.006130	           -0.833667	           -0.604340	            0.904751	            0.154295
            1.256000	           -0.091165	           -0.361335	            0.182105	           -0.233013	            0.005581	           -0.255695	           -0.007739	            0.000205	           -0.060271	            0.369879	            0.756357	           -5.159622	           -0.232311	            0.006130	           -0.833667	           -0.472860	            0.914544	            0.191973
            1.256500	           -0.136469	           -1.443528	            0.315149	           -0.233013	            0.005581	           -0.255695	           -0.031728	           -0.027466	           -0.081044	            0.229994	            0.571701	           -5.160220	           -0.232311	            0.006130	           -0.833667	           -0.510293	            0.858230	            0.040985
            1.257000	           -0.228463	           -1.623222	            0.177036	           -0.233013	            0.005581	           -0.255695	           -0.044522	           -0.064489	           -0.085074	            0.420052	           -0.164215	           -5.162928	           -0.232311	            0.006130	           -0.833667	           -0.585502	            0.876864	            0.041085
            1.257500	           -0.045013	           -0.181651	            0.320332	           -0.233013	            0.005581	           -0.255695	            0.023733	            0.009641	           -0.095956	            0.183062	            0.572202	           -5.347912	           -0.232311	            0.006130	           -0.833667	           -0.547976	            0.904887	            0.173121
            1.258000	           -0.044621	           -1.083372	            0.408179	           -0.233013	            0.005581	           -0.255695	           -0.016999	           -0.009092	           -0.039509	            0.603340	            0.942356	           -5.440634	           -0.232311	            0.006130	           -0.833667	           -0.679389	            0.885372	            0.210810
            1.258500	            0.001141	           -1.263433	            0.361437	           -0.233013	            0.005581	           -0.255695	           -0.014878	            0.000091	           -0.018716	            0.464264	            0.572380	           -5.113391	           -0.232311	            0.006130	           -0.833667	           -0.623006	            0.867007	            0.116468
            1.259000	            0.138880	           -0.542933	            0.501755	           -0.233013	            0.005581	           -0.255695	           -0.114818	           -0.009507	            0.081320	            0.230679	            0.387386	           -5.113949	           -0.232311	            0.006130	           -0.833667	           -0.623159	            0.904952	            0.078902
            1.259500	            0.092582	           -0.542156	            0.318445	           -0.233013	            0.005581	           -0.255695	           -0.107282	           -0.009049	           -0.033440	            0.373805	           -0.348031	           -5.304349	           -0.232311	            0.006130	           -0.833667	           -0.529131	            0.886117	            0.154196
            1.260000	           -0.320005	           -0.542235	            0.319469	           -0.233013	            0.005581	           -0.255695	           -0.069824	           -0.027638	           -0.070003	            0.413967	            1.493957	           -5.391655	           -0.232311	            0.006130	           -0.833667	           -0.548053	            0.923860	            0.154339
            1.260500	           -0.091261	           -1.082005	            0.087302	           -0.233013	            0.005581	           -0.255695	           -0.078633	           -0.036464	           -0.135419	            0.417955	            0.389067	           -5.395597	           -0.232311	            0.006130	           -0.833667	           -0.547949	            0.886318	            0.078803
